<?xml version="1.0" encoding="utf-8"?>
<!-- Generator: Adobe Illustrator 24.0.0, SVG Export Plug-In . SVG Version: 6.00 Build 0)  -->
<svg version="1.1" id="Layer_1" xmlns="http://www.w3.org/2000/svg" xmlns:xlink="http://www.w3.org/1999/xlink" x="0px" y="0px"
	 viewBox="0 0 203 212" style="enable-background:new 0 0 203 212;" xml:space="preserve">
<style type="text/css">
	.st0{fill:#FFFFFF;}
</style>
<g>
	<path class="st0" d="M146.98,137.65c0,0,23.73,20.83,3.8,43.23s-31.21,6.09-31.21,6.09s-17.75-13.89-35.86,0.05
		c-18.11,13.95-31.4-0.82-34.69-11.75c-3.29-10.93-1.16-27.07,9.64-35.15c4.07-3.04,10.16-5.74,15.32-14.85
		c5.17-9.11,8.75-29.49,28.87-29.93c23.11-0.51,25.4,14.75,27.08,20.17C133.81,128.04,146.98,137.65,146.98,137.65z"/>
	<path class="st0" d="M51.5,122.72c-8.93,1.85-17.21-5.84-17.62-24.33c-0.37-16.83,8.06-24.71,13.85-24.69s14.66,3.97,19.16,21.09
		S60.43,120.87,51.5,122.72z"/>
	<path class="st0" d="M82.82,90.95c0,0-15.94,3.84-14.89-28.36c0.72-21.94,10.22-27.87,16.38-27.71
		c6.16,0.16,15.85,9.13,17.02,31.41C102.86,95.35,82.82,90.95,82.82,90.95z"/>
	<path class="st0" d="M122.52,91.1c0,0-14.91-3.11-12.6-29.67c2.31-26.56,19.59-21.76,19.59-21.76s15.22,3.84,11.8,30.38
		S122.52,91.1,122.52,91.1z"/>
	<path class="st0" d="M150.65,117.94c0,0-13.7-9.58-5.25-26.89s21.67-12.4,21.67-12.4s16.09,5.71,10.37,25.21
		C171.71,123.37,155.56,123.36,150.65,117.94z"/>
</g>
</svg>
